<svg width="7" height="7" viewBox="0 0 7 7" fill="none" xmlns="http://www.w3.org/2000/svg">
<path fill-rule="evenodd" clip-rule="evenodd" d="M6.76964 0.458343C6.84951 0.538212 6.89313 0.647339 6.89033 0.760257L6.78084 5.1727C6.77519 5.40044 6.58598 5.58049 6.35824 5.57484C6.13049 5.56919 5.95045 5.37998 5.9561 5.15223L6.03816 1.84493L1.34139 6.54171C1.1803 6.7028 0.919117 6.7028 0.758025 6.54171C0.596934 6.38061 0.596934 6.11943 0.758025 5.95834L5.5302 1.18617L2.22283 1.26824C1.99509 1.27389 1.80588 1.09384 1.80023 0.866097C1.79458 0.63835 1.97462 0.449143 2.20237 0.443492L6.46773 0.337652C6.58064 0.33485 6.68977 0.378474 6.76964 0.458343Z" fill="white"/>
</svg>
