<svg xmlns="http://www.w3.org/2000/svg" viewBox="0 0 16.99 16.99"><defs><style>.cls-1{fill:#fff;}</style></defs><g id="Слой_2" data-name="Слой 2"><g id="Слой_1-2" data-name="Слой 1"><path class="cls-1" d="M12.82,7.93C10.4,7.5,9.41,6.5,9,4.08,8.79,2.78,8.68,1.46,8.5,0,8.31,1.5,8.18,2.87,8,4.21A3.94,3.94,0,0,1,4.23,7.93c-1.36.23-2.73.36-4.23.55,1.44.18,2.76.31,4.06.52,2.45.39,3.51,1.43,3.91,3.88.21,1.3.34,2.62.52,4.11.19-1.5.31-2.78.52-4C9.4,10.46,10.46,9.4,13,9c1.28-.21,2.56-.33,4-.51C15.49,8.28,14.14,8.17,12.82,7.93Z"/></g></g></svg>