<svg width="113" height="32" viewBox="0 0 113 32" fill="none" xmlns="http://www.w3.org/2000/svg">
<path d="M30.5097 7.72414C28.9215 7.72414 27.8296 8.32602 27.1347 9.42947C26.4398 10.5329 26.4398 11.0345 26.4398 12.7398V13.6426H25.1494V16.0502H26.4398V25.0784H29.2193V16.0502H32.098V13.6426H29.2193V12.7398C29.2193 10.9342 29.3185 10.6332 30.3112 10.232C30.5097 10.1317 30.7083 10.1317 30.9068 10.1317C31.2046 10.1317 31.5024 10.232 31.7009 10.3323L32.098 10.5329V8.22571L31.9987 8.12539C31.6017 7.82445 31.1053 7.72414 30.5097 7.72414ZM33.7855 7.52351H36.565V25.0784H33.7855V7.52351ZM44.8041 13.442C41.5283 13.442 38.9474 16.0502 38.9474 19.3605C38.9474 22.6708 41.5283 25.279 44.8041 25.279C48.0799 25.279 50.6608 22.6708 50.6608 19.3605C50.6608 16.0502 48.0799 13.442 44.8041 13.442ZM44.8041 22.9718C43.0173 22.9718 41.6276 21.4671 41.6276 19.3605C41.6276 17.2539 43.0173 15.7492 44.8041 15.7492C46.5909 15.7492 47.9806 17.2539 47.9806 19.3605C47.9806 21.4671 46.5909 22.9718 44.8041 22.9718ZM77.5619 20.7649L75.5766 14.7461L75.1796 13.6426H73.1942L72.8964 14.7461L70.9111 20.7649L68.5287 13.7429L68.628 13.6426H65.7493L65.8485 13.8433L63.4661 20.7649L61.4808 14.7461L61.0837 13.6426H59.0984L58.6021 14.7461L56.6168 20.7649L54.2344 13.6426H51.4549L55.7234 25.0784H57.4109L59.8926 18.4577L62.3742 25.0784H64.0617L66.9405 17.4545L69.8192 25.0784H71.5067L73.9884 18.4577L76.47 25.0784H78.4553L82.8231 13.6426H80.0436L77.5619 20.7649ZM89.1761 13.442C85.9003 13.442 83.3194 16.0502 83.3194 19.3605C83.3194 22.6708 85.9003 25.279 89.1761 25.279C92.4519 25.279 95.0328 22.6708 95.0328 19.3605C95.0328 16.0502 92.4519 13.442 89.1761 13.442ZM89.1761 22.9718C87.3893 22.9718 85.9996 21.4671 85.9996 19.3605C85.9996 17.2539 87.3893 15.7492 89.1761 15.7492C90.9629 15.7492 92.3526 17.2539 92.3526 19.3605C92.3526 21.4671 90.9629 22.9718 89.1761 22.9718ZM110.121 13.6426L107.739 20.7649L105.754 14.7461L105.356 13.6426H103.371L103.073 14.7461L101.088 20.7649L98.7057 13.6426H95.9262L100.294 25.0784H101.981L104.463 18.4577L106.945 25.0784H108.632L113 13.6426H110.121ZM10.6565 20.9655L10.5572 14.7461C13.4359 14.3448 15.5205 12.6395 16.6125 9.63009C17.6051 7.02194 17.8037 3.10972 17.5059 1.00313C15.8183 1.40439 13.2374 2.80878 12.4433 3.51097C11.8477 2.40752 10.458 0.802508 9.4653 0C8.47263 0.902821 7.08291 2.40752 6.48731 3.51097C5.69318 2.80878 3.11226 1.40439 1.42473 1.00313C1.12693 3.10972 1.32546 7.02194 2.31813 9.63009C3.41006 12.6395 5.49465 14.3448 8.37337 14.7461V21.0658C8.37337 21.0658 8.37337 20.9655 8.2741 20.9655C6.78511 18.558 3.90639 15.9498 0.134269 14.9467C-0.659861 21.5674 2.02033 29.3919 9.4653 32C16.9103 29.3919 19.5905 21.4671 18.7963 14.8464C15.0242 15.9498 12.2448 18.558 10.6565 20.9655ZM2.21886 18.1567C5.09758 19.8621 8.37337 23.0721 8.2741 29.0909C4.60125 26.6834 2.61593 23.0721 2.21886 18.1567ZM9.4653 12.5392C4.79978 12.5392 3.70785 8.32602 3.50932 4.11285C4.79978 4.81505 5.99098 5.81818 6.98364 6.92163C7.6785 5.41693 8.2741 4.31348 9.4653 3.10972C10.6565 4.31348 11.2521 5.41693 11.947 6.92163C12.9396 5.9185 14.1308 4.81505 15.4213 4.21317C15.2227 8.32602 14.1308 12.5392 9.4653 12.5392ZM10.6565 29.0909C10.6565 23.0721 13.9323 19.7618 16.7117 18.1567C16.4139 23.0721 14.4286 26.6834 10.6565 29.0909Z" fill="#FF7E15"/>
</svg>
